<mxfile host="Electron" agent="Mozilla/5.0 (Windows NT 10.0; Win64; x64) AppleWebKit/537.36 (KHTML, like Gecko) draw.io/26.0.16 Chrome/132.0.6834.196 Electron/34.2.0 Safari/537.36" version="26.0.16">
  <diagram name="PÃ¡gina-1" id="qhF9IGnHXijA-D_mSmLf">
    <mxGraphModel dx="1050" dy="780" grid="1" gridSize="10" guides="1" tooltips="1" connect="1" arrows="1" fold="1" page="1" pageScale="1" pageWidth="827" pageHeight="1169" math="0" shadow="0">
      <root>
        <mxCell id="0" />
        <mxCell id="1" parent="0" />
        <mxCell id="euqIt6tA9elwJnOp1sKI-6" style="edgeStyle=orthogonalEdgeStyle;rounded=0;orthogonalLoop=1;jettySize=auto;html=1;exitX=0.5;exitY=1;exitDx=0;exitDy=0;entryX=0.5;entryY=0;entryDx=0;entryDy=0;" edge="1" parent="1" source="euqIt6tA9elwJnOp1sKI-1" target="euqIt6tA9elwJnOp1sKI-2">
          <mxGeometry relative="1" as="geometry" />
        </mxCell>
        <mxCell id="euqIt6tA9elwJnOp1sKI-7" style="edgeStyle=orthogonalEdgeStyle;rounded=0;orthogonalLoop=1;jettySize=auto;html=1;exitX=0.5;exitY=1;exitDx=0;exitDy=0;entryX=0.5;entryY=0;entryDx=0;entryDy=0;" edge="1" parent="1" source="euqIt6tA9elwJnOp1sKI-1" target="euqIt6tA9elwJnOp1sKI-3">
          <mxGeometry relative="1" as="geometry" />
        </mxCell>
        <mxCell id="euqIt6tA9elwJnOp1sKI-8" style="edgeStyle=orthogonalEdgeStyle;rounded=0;orthogonalLoop=1;jettySize=auto;html=1;exitX=0.5;exitY=1;exitDx=0;exitDy=0;entryX=0.5;entryY=0;entryDx=0;entryDy=0;" edge="1" parent="1" source="euqIt6tA9elwJnOp1sKI-1" target="euqIt6tA9elwJnOp1sKI-4">
          <mxGeometry relative="1" as="geometry" />
        </mxCell>
        <mxCell id="euqIt6tA9elwJnOp1sKI-9" style="edgeStyle=orthogonalEdgeStyle;rounded=0;orthogonalLoop=1;jettySize=auto;html=1;exitX=0.5;exitY=1;exitDx=0;exitDy=0;entryX=0.5;entryY=0;entryDx=0;entryDy=0;" edge="1" parent="1" source="euqIt6tA9elwJnOp1sKI-1" target="euqIt6tA9elwJnOp1sKI-5">
          <mxGeometry relative="1" as="geometry" />
        </mxCell>
        <mxCell id="euqIt6tA9elwJnOp1sKI-1" value="Registar plano de aula" style="rounded=0;whiteSpace=wrap;html=1;" vertex="1" parent="1">
          <mxGeometry x="320" y="40" width="160" height="80" as="geometry" />
        </mxCell>
        <mxCell id="euqIt6tA9elwJnOp1sKI-2" value="Clicar na aba alunos" style="rounded=0;whiteSpace=wrap;html=1;" vertex="1" parent="1">
          <mxGeometry y="200" width="160" height="80" as="geometry" />
        </mxCell>
        <mxCell id="euqIt6tA9elwJnOp1sKI-3" value="Selecionar aluno" style="rounded=0;whiteSpace=wrap;html=1;" vertex="1" parent="1">
          <mxGeometry x="200" y="200" width="160" height="80" as="geometry" />
        </mxCell>
        <mxCell id="euqIt6tA9elwJnOp1sKI-4" value="Escrever plano" style="rounded=0;whiteSpace=wrap;html=1;" vertex="1" parent="1">
          <mxGeometry x="440" y="200" width="160" height="80" as="geometry" />
        </mxCell>
        <mxCell id="euqIt6tA9elwJnOp1sKI-5" value="Clicar em salvar" style="rounded=0;whiteSpace=wrap;html=1;" vertex="1" parent="1">
          <mxGeometry x="640" y="200" width="160" height="80" as="geometry" />
        </mxCell>
      </root>
    </mxGraphModel>
  </diagram>
</mxfile>
